<?xml version="1.0" encoding="iso-8859-1"?>
<!-- Generator: Adobe Illustrator 27.0.0, SVG Export Plug-In . SVG Version: 6.00 Build 0)  -->
<svg version="1.1" id="Layer_1" xmlns="http://www.w3.org/2000/svg" xmlns:xlink="http://www.w3.org/1999/xlink" x="0px" y="0px"
	 viewBox="0 0 1000 1000" style="enable-background:new 0 0 1000 1000;" xml:space="preserve">
<g id="watermark_1_">
	<g>
		<g id="watermark" style="opacity:0.61;">
			<g>
				<g>
					<g>
						<g>
							<polygon style="fill:#FFFFFF;" points="421.112,924.528 409.007,952.493 402.615,952.493 390.55,924.528 397.541,924.528 
								406.051,944.503 414.68,924.528 							"/>
						</g>
						<g>
							<path style="fill:#FFFFFF;" d="M442.323,943.185h-16.26c0.599,2.677,2.876,4.315,6.153,4.315
								c2.277,0,3.915-0.679,5.393-2.077l3.316,3.595c-1.997,2.278-4.994,3.476-8.868,3.476c-7.431,0-12.265-4.674-12.265-11.067
								c0-6.432,4.914-11.066,11.466-11.066c6.312,0,11.186,4.235,11.186,11.146C442.443,941.987,442.363,942.666,442.323,943.185
								 M425.983,939.55h10.587c-0.44-2.717-2.478-4.475-5.274-4.475C428.46,935.075,426.422,936.793,425.983,939.55"/>
						</g>
						<g>
							<path style="fill:#FFFFFF;" d="M444.997,941.427c0-6.471,4.994-11.066,11.985-11.066c4.514,0,8.07,1.958,9.628,5.473
								l-4.834,2.597c-1.159-2.038-2.877-2.956-4.834-2.956c-3.156,0-5.633,2.198-5.633,5.952c0,3.756,2.477,5.953,5.633,5.953
								c1.958,0,3.675-0.879,4.834-2.956l4.834,2.637c-1.558,3.436-5.114,5.433-9.628,5.433
								C449.991,952.493,444.997,947.899,444.997,941.427"/>
						</g>
						<g>
							<path style="fill:#FFFFFF;" d="M484.386,951.135c-1.279,0.919-3.157,1.358-5.074,1.358c-5.073,0-8.03-2.597-8.03-7.711
								v-8.829h-3.316v-4.794h3.316v-5.233h6.232v5.233h5.353v4.794h-5.353v8.749c0,1.837,0.998,2.836,2.677,2.836
								c0.918,0,1.837-0.279,2.517-0.799L484.386,951.135z"/>
						</g>
					</g>
					<g>
						<path style="fill:#FFFFFF;" d="M527.157,930.68v5.753c-0.519-0.04-0.918-0.08-1.398-0.08c-3.435,0-5.713,1.877-5.713,5.993
							v10.147h-6.232V931h5.953v2.836C521.284,931.759,523.841,930.68,527.157,930.68"/>
					</g>
					<g>
						<path style="fill:#FFFFFF;" d="M528.954,949.257l2.197-4.874c2.357,1.718,5.873,2.916,9.229,2.916
							c3.836,0,5.393-1.278,5.393-2.996c0-5.233-16.26-1.638-16.26-12.025c0-4.754,3.835-8.709,11.785-8.709
							c3.516,0,7.112,0.839,9.708,2.477l-1.998,4.914c-2.597-1.478-5.273-2.197-7.75-2.197c-3.835,0-5.313,1.438-5.313,3.196
							c0,5.154,16.259,1.598,16.259,11.865c0,4.675-3.875,8.67-11.865,8.67C535.905,952.493,531.43,951.175,528.954,949.257"/>
					</g>
					<g>
						<path style="fill:#FFFFFF;" d="M577.131,943.185h-16.26c0.599,2.677,2.876,4.315,6.153,4.315c2.277,0,3.915-0.679,5.393-2.077
							l3.316,3.595c-1.998,2.278-4.994,3.476-8.869,3.476c-7.431,0-12.265-4.674-12.265-11.067c0-6.432,4.914-11.066,11.466-11.066
							c6.312,0,11.187,4.235,11.187,11.146C577.251,941.987,577.171,942.666,577.131,943.185 M560.791,939.55h10.587
							c-0.439-2.717-2.477-4.475-5.273-4.475C563.268,935.075,561.231,936.793,560.791,939.55"/>
					</g>
					<g>
						<path style="fill:#FFFFFF;" d="M602.337,943.185h-16.26c0.599,2.677,2.876,4.315,6.152,4.315c2.277,0,3.915-0.679,5.393-2.077
							l3.316,3.595c-1.998,2.278-4.994,3.476-8.869,3.476c-7.431,0-12.265-4.674-12.265-11.067c0-6.432,4.914-11.066,11.466-11.066
							c6.312,0,11.186,4.235,11.186,11.146C602.457,941.987,602.377,942.666,602.337,943.185 M585.997,939.55h10.587
							c-0.439-2.717-2.477-4.475-5.273-4.475C588.474,935.075,586.437,936.793,585.997,939.55"/>
					</g>
					<g>
						<polygon style="fill:#FFFFFF;" points="615.838,944.064 612.841,947.02 612.841,952.493 606.61,952.493 606.61,922.85 
							612.841,922.85 612.841,939.629 621.95,931 629.381,931 620.432,940.108 630.18,952.493 622.63,952.493 						"/>
					</g>
					<g>
						<path style="fill:#FFFFFF;" d="M514.371,955.416L514.371,955.416l-6.226-6.226c-0.947,1.107-2.075,2.054-3.339,2.796
							c-0.201,0.15-0.406,0.296-0.616,0.433l6.589,6.589c0.992,0.992,2.601,0.992,3.592,0
							C515.363,958.017,515.363,956.408,514.371,955.416"/>
					</g>
					<g>
						<path style="fill:#FFFFFF;" d="M499.965,929.04c0.48-0.377,1.077-0.612,1.735-0.612c0.091,0,0.181,0.005,0.27,0.013
							c-0.466-0.34-1.041-0.542-1.663-0.542c-0.859,0-1.619,0.392-2.137,0.998c-0.111,0-0.218,0.013-0.328,0.016
							c0.086-0.167,0.139-0.354,0.139-0.555c0-0.509-0.311-0.945-0.752-1.13c0.19,0.275,0.301,0.608,0.301,0.968
							c0,0.267-0.066,0.517-0.176,0.742c-6.119,0.437-10.95,5.527-10.95,11.757c0,6.516,5.283,11.799,11.799,11.799
							c6.517,0,11.8-5.283,11.8-11.799C510.004,934.777,505.644,929.892,499.965,929.04 M495.61,932.114
							c0.947,0,1.837,0.244,2.611,0.674c0.813-0.532,1.785-0.842,2.828-0.842c1.547,0,2.934,0.68,3.883,1.756
							c-0.948-0.826-2.186-1.328-3.541-1.328c-0.977,0-1.895,0.261-2.686,0.716c-0.172,0.1-0.34,0.208-0.499,0.326
							c-0.142-0.104-0.29-0.203-0.444-0.292c-0.803-0.476-1.741-0.749-2.743-0.749c-0.653,0-1.279,0.117-1.86,0.331
							C493.895,932.328,494.727,932.114,495.61,932.114 M503.858,941.785c0.25,0.664,0.394,1.38,0.394,2.131
							c0,3.34-2.707,6.047-6.047,6.047c-3.339,0-6.047-2.707-6.047-6.047c0-0.751,0.143-1.467,0.394-2.131
							c-1.35-0.831-2.253-2.317-2.253-4.019c0-2.607,2.114-4.72,4.72-4.72c1.23,0,2.346,0.474,3.186,1.244
							c0.84-0.77,1.956-1.244,3.186-1.244c2.607,0,4.72,2.113,4.72,4.72C506.111,939.467,505.208,940.954,503.858,941.785"/>
					</g>
					<g>
						<path style="fill:#FFFFFF;" d="M503.627,937.351c0,1.082-0.879,1.961-1.961,1.961c-1.082,0-1.961-0.879-1.961-1.961
							s0.879-1.961,1.961-1.961c0.22,0,0.428,0.037,0.625,0.102c-0.065,0.135-0.099,0.287-0.099,0.445
							c0,0.595,0.482,1.076,1.077,1.076c0.11,0,0.217-0.017,0.318-0.048C503.613,937.089,503.627,937.218,503.627,937.351"/>
					</g>
					<g>
						<path style="fill:#FFFFFF;" d="M496.201,937.351c0,0.818-0.665,1.482-1.483,1.482c-0.818,0-1.483-0.664-1.483-1.482
							s0.665-1.483,1.483-1.483c0.166,0,0.324,0.027,0.473,0.077c-0.049,0.102-0.075,0.217-0.075,0.337
							c0,0.449,0.364,0.814,0.814,0.814c0.083,0,0.164-0.013,0.241-0.036C496.191,937.153,496.201,937.251,496.201,937.351"/>
					</g>
					<g>
						<g>
							<g>
								<rect x="484.56" y="939.024" style="fill:#FFFFFF;" width="1.34" height="1.34"/>
							</g>
							<g>
								<rect x="510.51" y="939.024" style="fill:#FFFFFF;" width="1.34" height="1.34"/>
							</g>
							<g>
								<path style="fill:#FFFFFF;" d="M511.332,939.572h-0.304c0-7.07-5.752-12.823-12.823-12.823
									c-7.07,0-12.823,5.753-12.823,12.823h-0.305c0-3.506,1.365-6.803,3.845-9.282c2.479-2.48,5.776-3.845,9.282-3.845
									c3.507,0,6.803,1.365,9.283,3.845C509.966,932.769,511.332,936.065,511.332,939.572"/>
							</g>
						</g>
						<g>
							<rect x="497.534" y="925.927" style="fill:#FFFFFF;" width="1.34" height="1.34"/>
						</g>
						<g>
							<rect x="489.006" y="926.445" style="fill:#FFFFFF;" width="18.397" height="0.304"/>
						</g>
						<g>
							<path style="fill:#FFFFFF;" d="M489.494,926.658c0,0.235-0.191,0.427-0.427,0.427c-0.235,0-0.426-0.191-0.426-0.427
								s0.191-0.427,0.426-0.427C489.303,926.231,489.494,926.422,489.494,926.658"/>
						</g>
						<g>
							<path style="fill:#FFFFFF;" d="M507.829,926.658c0,0.235-0.191,0.427-0.427,0.427c-0.235,0-0.426-0.191-0.426-0.427
								s0.191-0.427,0.426-0.427C507.639,926.231,507.829,926.422,507.829,926.658"/>
						</g>
					</g>
				</g>
				<g>
					<path style="fill:#FFFFFF;" d="M640.109,951.171c0,3.395-5.146,3.395-5.146,0C634.963,947.779,640.109,947.779,640.109,951.171
						z"/>
				</g>
				<g>
					<g>
						<g>
							<path style="fill:#FFFFFF;" d="M307.849,936.236l3.859,13.253l4.038-13.253h4.823l-6.145,17.721h-5.073l-1.822-5.216
								l-1.572-5.896l-1.571,5.896l-1.822,5.216h-5.073l-6.18-17.721h4.858l4.038,13.253l3.822-13.253H307.849z"/>
						</g>
						<g>
							<path style="fill:#FFFFFF;" d="M340.449,936.236l3.859,13.253l4.038-13.253h4.823l-6.145,17.721h-5.073l-1.822-5.216
								l-1.571-5.896l-1.572,5.896l-1.822,5.216h-5.073l-6.18-17.721h4.858l4.038,13.253l3.822-13.253H340.449z"/>
						</g>
						<g>
							<path style="fill:#FFFFFF;" d="M373.048,936.236l3.859,13.253l4.038-13.253h4.823l-6.145,17.721h-5.073l-1.822-5.216
								l-1.572-5.896l-1.571,5.896l-1.822,5.216h-5.073l-6.18-17.721h4.858l4.038,13.253l3.822-13.253H373.048z"/>
						</g>
					</g>
					<g>
						<path style="fill:#FFFFFF;" d="M393.123,951.412c0,3.395-5.146,3.395-5.146,0C387.977,948.02,393.123,948.02,393.123,951.412z
							"/>
					</g>
					<g>
						<path style="fill:#FFFFFF;" d="M658.296,951.171c-2.036,2.001-4.177,2.787-6.787,2.787c-5.108,0-9.361-3.072-9.361-9.323
							c0-6.251,4.253-9.326,9.361-9.326c2.502,0,4.43,0.716,6.359,2.609l-2.752,2.894c-1.036-0.931-2.321-1.393-3.534-1.393
							c-2.929,0-5.073,2.144-5.073,5.216c0,3.357,2.286,5.143,5,5.143c1.393,0,2.787-0.393,3.857-1.463L658.296,951.171z"/>
					</g>
					<g>
						<path style="fill:#FFFFFF;" d="M678.097,944.777c0,5.073-3.465,9.181-9.181,9.181c-5.716,0-9.146-4.107-9.146-9.181
							c0-5.038,3.502-9.181,9.111-9.181S678.097,939.739,678.097,944.777z M664.128,944.777c0,2.679,1.609,5.181,4.788,5.181
							c3.179,0,4.788-2.502,4.788-5.181c0-2.644-1.859-5.216-4.788-5.216C665.772,939.561,664.128,942.133,664.128,944.777z"/>
					</g>
					<g>
						<path style="fill:#FFFFFF;" d="M692.828,953.958v-9.431c0-2.324-1.216-4.43-3.61-4.43c-2.356,0-3.75,2.106-3.75,4.43v9.431
							h-4.36v-17.649h4.038l0.323,2.144c0.928-1.786,2.964-2.429,4.643-2.429c2.109,0,4.218,0.858,5.216,3.287
							c1.574-2.502,3.61-3.217,5.896-3.217c5,0,7.467,3.075,7.467,8.36v9.504h-4.361v-9.504c0-2.321-0.963-4.288-3.322-4.288
							c-2.356,0-3.822,2.036-3.822,4.36v9.431H692.828z"/>
					</g>
				</g>
			</g>
		</g>
		<g style="opacity:0.61;">
			<g>
				<g>
					<path style="fill:#FFFFFF;" d="M708.973,859.493c-0.013-2.665-2.087-4.618-4.766-4.659c-2.011-0.031-1.81,0.261-1.815-1.887
						c-0.006-2.389-0.015-4.778,0.006-7.166c0.007-0.824-0.243-1.505-0.787-2.125c-5.098-5.81-10.184-11.63-15.281-17.441
						c-0.262-0.299-0.599-0.532-0.901-0.796c-13.528,0-27.055,0-40.583,0c-1.729,0.639-2.482,1.889-2.478,3.72
						c0.021,8.159,0.009,16.318,0.008,24.478c0,1.21-0.007,1.281-1.197,1.201c-3.258-0.221-5.477,2.147-5.436,5.426
						c0.096,7.568,0.028,15.137,0.031,22.706c0.001,3.44,1.887,5.32,5.333,5.331c1.267,0.004,1.268,0.004,1.268,1.306
						c0.001,4.831-0.002,9.662,0.002,14.493c0.002,2.595,1.262,3.855,3.85,3.855c17.446,0.001,34.891,0.001,52.337,0
						c2.543,0,3.822-1.268,3.824-3.799c0.005-4.912,0.001-9.823,0.003-14.735c0-1.115,0.005-1.112,1.131-1.121
						c0.589-0.005,1.177,0.017,1.761-0.127c2.169-0.535,3.68-2.273,3.689-4.503C709.007,875.597,709.011,867.545,708.973,859.493z
						 M647.034,828.716c11.619-0.001,23.237-0.001,34.856,0c1.193,0,1.206,0.015,1.207,1.222c0.001,4.884-0.002,9.767,0.002,14.651
						c0.001,1.765,0.543,2.305,2.307,2.306c4.159,0.003,8.318,0,12.477,0.003c0.997,0.001,1.044,0.046,1.046,1.052
						c0.006,1.932,0.005,3.864,0,5.796c-0.003,1.038-0.051,1.085-1.098,1.085c-8.479,0.002-16.958,0.001-25.438,0.001
						c-8.452,0-16.905,0-25.357,0c-1.198,0-1.202-0.003-1.202-1.221c-0.001-7.889-0.001-15.778,0-23.667
						C645.835,828.724,645.844,828.716,647.034,828.716z M697.728,903.645c-8.454,0.001-16.908,0.001-25.362,0.001
						c-8.427,0-16.854,0.001-25.281,0c-1.245,0-1.249-0.003-1.249-1.262c-0.001-4.348-0.003-8.696,0.001-13.043
						c0.001-1.01,0.051-1.059,1.041-1.059c16.989-0.002,33.977-0.002,50.966,0c1.041,0,1.086,0.044,1.087,1.094
						c0.003,4.348,0.003,8.696,0.001,13.043C698.931,903.634,698.92,903.645,697.728,903.645z"/>
				</g>
				<g>
					<g>
						<rect x="668.546" y="828.478" style="fill:#FFFFFF;" width="3.825" height="2.295"/>
					</g>
					<g>
						<rect x="664.722" y="830.773" style="fill:#FFFFFF;" width="3.825" height="2.295"/>
					</g>
					<g>
						<rect x="668.546" y="833.068" style="fill:#FFFFFF;" width="3.825" height="2.295"/>
					</g>
					<g>
						<rect x="664.722" y="835.363" style="fill:#FFFFFF;" width="3.825" height="2.295"/>
					</g>
					<g>
						<rect x="668.546" y="837.658" style="fill:#FFFFFF;" width="3.825" height="2.295"/>
					</g>
					<g>
						<rect x="664.722" y="839.953" style="fill:#FFFFFF;" width="3.825" height="2.295"/>
					</g>
					<g>
						<rect x="668.546" y="842.247" style="fill:#FFFFFF;" width="3.825" height="2.295"/>
					</g>
					<g>
						<rect x="664.722" y="844.542" style="fill:#FFFFFF;" width="3.825" height="2.295"/>
					</g>
					<g>
						<rect x="668.546" y="846.837" style="fill:#FFFFFF;" width="3.825" height="2.295"/>
					</g>
					<g>
						<rect x="664.722" y="849.132" style="fill:#FFFFFF;" width="3.825" height="2.295"/>
					</g>
					<g>
						<rect x="668.546" y="851.427" style="fill:#FFFFFF;" width="3.825" height="2.295"/>
					</g>
					<g>
						<rect x="664.722" y="853.722" style="fill:#FFFFFF;" width="3.825" height="2.295"/>
					</g>
				</g>
			</g>
			<g>
				<path style="fill:#FFFFFF;" d="M364.231,859.493c-0.013-2.665-2.087-4.618-4.766-4.659c-2.011-0.031-1.81,0.261-1.815-1.887
					c-0.006-2.389-0.015-4.778,0.006-7.166c0.007-0.824-0.243-1.505-0.787-2.125c-5.098-5.81-10.184-11.63-15.281-17.441
					c-0.262-0.299-0.599-0.532-0.901-0.796c-13.528,0-27.055,0-40.583,0c-1.729,0.639-2.482,1.889-2.478,3.72
					c0.021,8.159,0.009,16.318,0.008,24.478c0,1.21-0.007,1.281-1.197,1.201c-3.258-0.221-5.477,2.147-5.436,5.426
					c0.096,7.568,0.028,15.137,0.031,22.706c0.001,3.44,1.887,5.32,5.333,5.331c1.267,0.004,1.268,0.004,1.268,1.306
					c0.001,4.831-0.002,9.662,0.002,14.493c0.002,2.595,1.262,3.855,3.85,3.855c17.446,0.001,34.891,0.001,52.337,0
					c2.543,0,3.822-1.268,3.824-3.799c0.005-4.912,0.001-9.823,0.003-14.735c0-1.115,0.004-1.112,1.131-1.121
					c0.589-0.005,1.177,0.017,1.761-0.127c2.169-0.535,3.68-2.273,3.689-4.503C364.264,875.597,364.269,867.545,364.231,859.493z
					 M302.292,828.716c11.619-0.001,23.237-0.001,34.856,0c1.192,0,1.206,0.015,1.207,1.222c0.001,4.884-0.001,9.767,0.002,14.651
					c0.001,1.765,0.543,2.305,2.307,2.306c4.159,0.003,8.318,0,12.477,0.003c0.997,0.001,1.044,0.046,1.046,1.052
					c0.006,1.932,0.005,3.864,0,5.796c-0.003,1.038-0.051,1.085-1.098,1.085c-8.479,0.002-16.958,0.001-25.438,0.001
					c-8.452,0-16.905,0-25.357,0c-1.198,0-1.202-0.003-1.202-1.221c-0.001-7.889-0.001-15.778,0-23.667
					C301.093,828.724,301.102,828.716,302.292,828.716z M352.985,903.645c-8.454,0.001-16.908,0.001-25.362,0.001
					c-8.427,0-16.854,0.001-25.281,0c-1.245,0-1.249-0.003-1.249-1.262c-0.001-4.348-0.003-8.696,0.001-13.043
					c0.001-1.01,0.051-1.059,1.041-1.059c16.989-0.002,33.977-0.002,50.966,0c1.041,0,1.086,0.044,1.087,1.094
					c0.003,4.348,0.003,8.696,0.001,13.043C354.188,903.634,354.177,903.645,352.985,903.645z"/>
			</g>
			<g>
				<path style="fill:#FFFFFF;" d="M303.581,879.891v-17.193h6.051c0.816,0,1.581,0.132,2.293,0.396
					c0.712,0.264,1.333,0.636,1.861,1.117c0.527,0.48,0.944,1.053,1.248,1.717c0.304,0.665,0.456,1.397,0.456,2.198
					c0,0.816-0.152,1.557-0.456,2.221s-0.721,1.236-1.248,1.717c-0.529,0.48-1.149,0.852-1.861,1.117
					c-0.713,0.264-1.477,0.396-2.293,0.396h-2.809v6.315H303.581z M309.68,870.503c0.848,0,1.489-0.241,1.921-0.721
					c0.432-0.48,0.648-1.032,0.648-1.656c0-0.304-0.052-0.601-0.156-0.889c-0.105-0.288-0.264-0.54-0.48-0.756
					c-0.216-0.217-0.484-0.388-0.805-0.516c-0.32-0.129-0.696-0.193-1.128-0.193h-2.857v4.731H309.68z"/>
				<path style="fill:#FFFFFF;" d="M317.796,862.699h3.77l6.916,11.526h0.191l-0.191-3.314v-8.212h3.217v17.193h-3.409l-7.3-12.174
					h-0.191l0.191,3.314v8.86h-3.193V862.699z"/>
				<path style="fill:#FFFFFF;" d="M343.08,870.454h8.429c0.048,0.193,0.087,0.425,0.12,0.697c0.031,0.272,0.048,0.544,0.048,0.816
					c0,1.104-0.167,2.145-0.504,3.121c-0.336,0.977-0.865,1.849-1.585,2.618c-0.768,0.817-1.69,1.449-2.761,1.897
					c-1.073,0.448-2.298,0.672-3.674,0.672c-1.249,0-2.426-0.224-3.53-0.672c-1.104-0.447-2.065-1.072-2.881-1.873
					c-0.816-0.8-1.465-1.749-1.945-2.845c-0.48-1.097-0.72-2.293-0.72-3.59c0-1.296,0.24-2.493,0.72-3.589s1.129-2.045,1.945-2.845
					c0.816-0.8,1.777-1.425,2.881-1.873c1.104-0.448,2.281-0.672,3.53-0.672c1.392,0,2.637,0.24,3.734,0.72
					c1.097,0.48,2.036,1.144,2.821,1.993l-2.232,2.185c-0.562-0.592-1.185-1.044-1.874-1.357s-1.513-0.468-2.473-0.468
					c-0.786,0-1.53,0.14-2.234,0.421c-0.705,0.28-1.321,0.676-1.85,1.188c-0.527,0.512-0.949,1.133-1.259,1.861
					c-0.312,0.728-0.469,1.541-0.469,2.437c0,0.897,0.157,1.709,0.469,2.438c0.311,0.728,0.735,1.349,1.271,1.861
					c0.536,0.512,1.156,0.909,1.862,1.188c0.704,0.281,1.457,0.421,2.258,0.421c0.911,0,1.684-0.132,2.317-0.396
					c0.632-0.264,1.171-0.604,1.62-1.021c0.321-0.288,0.598-0.652,0.829-1.092s0.412-0.932,0.541-1.477h-5.404V870.454z"/>
			</g>
			<g>
				<path style="fill:#FFFFFF;" d="M443.437,859.493c-0.013-2.665-2.087-4.618-4.766-4.659c-2.011-0.031-1.81,0.261-1.815-1.887
					c-0.006-2.389-0.015-4.778,0.006-7.166c0.007-0.824-0.243-1.505-0.787-2.125c-5.098-5.81-10.184-11.63-15.281-17.441
					c-0.262-0.299-0.599-0.532-0.901-0.796c-13.528,0-27.055,0-40.583,0c-1.729,0.639-2.482,1.889-2.478,3.72
					c0.021,8.159,0.009,16.318,0.008,24.478c0,1.21-0.007,1.281-1.197,1.201c-3.258-0.221-5.477,2.147-5.436,5.426
					c0.096,7.568,0.028,15.137,0.031,22.706c0.001,3.44,1.887,5.32,5.333,5.331c1.267,0.004,1.268,0.004,1.268,1.306
					c0.001,4.831-0.002,9.662,0.002,14.493c0.002,2.595,1.262,3.855,3.85,3.855c17.446,0.001,34.891,0.001,52.337,0
					c2.543,0,3.822-1.268,3.824-3.799c0.005-4.912,0.001-9.823,0.003-14.735c0-1.115,0.004-1.112,1.131-1.121
					c0.589-0.005,1.177,0.017,1.761-0.127c2.169-0.535,3.68-2.273,3.689-4.503C443.47,875.597,443.475,867.545,443.437,859.493z
					 M381.498,828.716c11.619-0.001,23.237-0.001,34.856,0c1.192,0,1.206,0.015,1.207,1.222c0.001,4.884-0.001,9.767,0.002,14.651
					c0.001,1.765,0.543,2.305,2.307,2.306c4.159,0.003,8.318,0,12.477,0.003c0.997,0.001,1.044,0.046,1.046,1.052
					c0.006,1.932,0.005,3.864,0,5.796c-0.003,1.038-0.051,1.085-1.098,1.085c-8.479,0.002-16.958,0.001-25.438,0.001
					c-8.452,0-16.905,0-25.357,0c-1.198,0-1.202-0.003-1.202-1.221c-0.001-7.889-0.001-15.778,0-23.667
					C380.299,828.724,380.308,828.716,381.498,828.716z M432.192,903.645c-8.454,0.001-16.908,0.001-25.362,0.001
					c-8.427,0-16.854,0.001-25.281,0c-1.245,0-1.249-0.003-1.249-1.262c-0.001-4.348-0.002-8.696,0.001-13.043
					c0.001-1.01,0.051-1.059,1.041-1.059c16.989-0.002,33.977-0.002,50.966,0c1.041,0,1.086,0.044,1.087,1.094
					c0.003,4.348,0.003,8.696,0.001,13.043C433.394,903.634,433.384,903.645,432.192,903.645z"/>
			</g>
			<g>
				<path style="fill:#FFFFFF;" d="M402.272,862.699h3.698l6.46,17.193h-3.578l-1.416-4.106h-6.628l-1.417,4.106h-3.578
					L402.272,862.699z M406.379,872.808l-1.537-4.298l-0.625-2.089h-0.192l-0.625,2.089l-1.537,4.298H406.379z"/>
				<path style="fill:#FFFFFF;" d="M415.815,866.541c-0.273,0-0.533-0.052-0.781-0.156c-0.248-0.104-0.465-0.248-0.648-0.432
					c-0.184-0.184-0.328-0.396-0.432-0.636c-0.105-0.241-0.156-0.504-0.156-0.793s0.052-0.552,0.156-0.793
					c0.104-0.24,0.248-0.452,0.432-0.636c0.184-0.184,0.4-0.328,0.648-0.432c0.248-0.104,0.508-0.156,0.781-0.156
					c0.56,0,1.041,0.196,1.441,0.588c0.4,0.393,0.601,0.869,0.601,1.429c0,0.56-0.201,1.037-0.601,1.428
					C416.856,866.345,416.375,866.541,415.815,866.541z M414.255,879.891v-11.766h3.145v11.766H414.255z"/>
			</g>
			<g>
				<path style="fill:#FFFFFF;" d="M524.043,859.493c-0.013-2.665-2.087-4.618-4.766-4.659c-2.011-0.031-1.81,0.261-1.815-1.887
					c-0.006-2.389-0.015-4.778,0.006-7.166c0.007-0.824-0.243-1.505-0.787-2.125c-5.098-5.81-10.184-11.63-15.281-17.441
					c-0.262-0.299-0.599-0.532-0.901-0.796c-13.528,0-27.055,0-40.583,0c-1.729,0.639-2.482,1.889-2.478,3.72
					c0.021,8.159,0.009,16.318,0.008,24.478c0,1.21-0.007,1.281-1.197,1.201c-3.258-0.221-5.477,2.147-5.436,5.426
					c0.096,7.568,0.028,15.137,0.031,22.706c0.001,3.44,1.887,5.32,5.333,5.331c1.267,0.004,1.268,0.004,1.268,1.306
					c0.001,4.831-0.002,9.662,0.002,14.493c0.002,2.595,1.262,3.855,3.85,3.855c17.446,0.001,34.891,0.001,52.337,0
					c2.543,0,3.822-1.268,3.824-3.799c0.005-4.912,0.001-9.823,0.003-14.735c0-1.115,0.004-1.112,1.131-1.121
					c0.589-0.005,1.177,0.017,1.761-0.127c2.169-0.535,3.68-2.273,3.689-4.503C524.076,875.597,524.081,867.545,524.043,859.493z
					 M462.104,828.716c11.619-0.001,23.237-0.001,34.856,0c1.192,0,1.206,0.015,1.207,1.222c0.001,4.884-0.001,9.767,0.002,14.651
					c0.001,1.765,0.543,2.305,2.307,2.306c4.159,0.003,8.318,0,12.477,0.003c0.997,0.001,1.044,0.046,1.046,1.052
					c0.006,1.932,0.005,3.864,0,5.796c-0.003,1.038-0.051,1.085-1.098,1.085c-8.479,0.002-16.958,0.001-25.438,0.001
					c-8.452,0-16.905,0-25.357,0c-1.198,0-1.202-0.003-1.202-1.221c-0.001-7.889-0.001-15.778,0-23.667
					C460.905,828.724,460.914,828.716,462.104,828.716z M512.798,903.645c-8.454,0.001-16.908,0.001-25.362,0.001
					c-8.427,0-16.854,0.001-25.281,0c-1.245,0-1.249-0.003-1.249-1.262c-0.001-4.348-0.002-8.696,0.001-13.043
					c0.001-1.01,0.051-1.059,1.041-1.059c16.989-0.002,33.977-0.002,50.966,0c1.041,0,1.086,0.044,1.087,1.094
					c0.003,4.348,0.003,8.696,0.001,13.043C514,903.634,513.989,903.645,512.798,903.645z"/>
			</g>
			<g>
				<path style="fill:#FFFFFF;" d="M470.308,880.275c-0.737,0-1.441-0.104-2.113-0.312c-0.672-0.208-1.289-0.52-1.849-0.936
					c-0.56-0.416-1.048-0.925-1.464-1.525c-0.417-0.601-0.745-1.301-0.985-2.101l3.049-1.2c0.224,0.864,0.616,1.581,1.177,2.149
					s1.297,0.852,2.209,0.852c0.336,0,0.66-0.044,0.973-0.132c0.312-0.087,0.592-0.216,0.84-0.384
					c0.248-0.168,0.444-0.38,0.589-0.636c0.144-0.256,0.216-0.552,0.216-0.888c0-0.32-0.056-0.608-0.168-0.865
					c-0.112-0.255-0.3-0.495-0.564-0.72c-0.264-0.224-0.609-0.44-1.033-0.648c-0.424-0.208-0.948-0.424-1.572-0.648l-1.056-0.384
					c-0.465-0.16-0.933-0.376-1.405-0.648c-0.472-0.272-0.9-0.6-1.284-0.985c-0.385-0.384-0.701-0.836-0.949-1.357
					c-0.249-0.52-0.372-1.108-0.372-1.765c0-0.672,0.132-1.301,0.396-1.885c0.264-0.584,0.64-1.096,1.129-1.537
					c0.488-0.44,1.072-0.784,1.753-1.032c0.681-0.248,1.437-0.372,2.269-0.372c0.864,0,1.612,0.116,2.245,0.348
					c0.633,0.232,1.168,0.528,1.609,0.888c0.44,0.36,0.796,0.757,1.068,1.188c0.272,0.433,0.472,0.84,0.601,1.225l-2.857,1.2
					c-0.161-0.48-0.453-0.913-0.876-1.297c-0.425-0.384-1.005-0.576-1.741-0.576c-0.704,0-1.289,0.164-1.753,0.492
					c-0.465,0.329-0.697,0.757-0.697,1.285c0,0.512,0.224,0.949,0.672,1.309c0.448,0.36,1.161,0.708,2.137,1.044l1.081,0.36
					c0.688,0.241,1.316,0.517,1.885,0.828c0.568,0.312,1.056,0.684,1.465,1.117c0.408,0.433,0.72,0.925,0.936,1.477
					c0.217,0.552,0.324,1.189,0.324,1.909c0,0.897-0.18,1.669-0.54,2.317c-0.36,0.648-0.82,1.181-1.38,1.597
					c-0.561,0.416-1.193,0.728-1.897,0.936C471.668,880.172,470.98,880.275,470.308,880.275z"/>
				<path style="fill:#FFFFFF;" d="M477.175,862.699h3.506l3.554,10.349l0.625,2.209h0.192l0.672-2.209l3.698-10.349h3.506
					l-6.268,17.193h-3.409L477.175,862.699z"/>
				<path style="fill:#FFFFFF;" d="M502.388,870.454h8.428c0.048,0.193,0.088,0.425,0.12,0.697c0.033,0.272,0.049,0.544,0.049,0.816
					c0,1.104-0.169,2.145-0.505,3.121c-0.336,0.977-0.864,1.849-1.585,2.618c-0.768,0.817-1.688,1.449-2.761,1.897
					c-1.073,0.448-2.298,0.672-3.674,0.672c-1.249,0-2.425-0.224-3.529-0.672c-1.105-0.447-2.066-1.072-2.882-1.873
					c-0.816-0.8-1.465-1.749-1.945-2.845c-0.48-1.097-0.72-2.293-0.72-3.59c0-1.296,0.241-2.493,0.72-3.589
					c0.48-1.097,1.129-2.045,1.945-2.845c0.816-0.8,1.777-1.425,2.882-1.873c1.104-0.448,2.28-0.672,3.529-0.672
					c1.392,0,2.637,0.24,3.734,0.72c1.097,0.48,2.038,1.144,2.822,1.993l-2.234,2.185c-0.56-0.592-1.185-1.044-1.874-1.357
					c-0.687-0.312-1.512-0.468-2.473-0.468c-0.784,0-1.528,0.14-2.234,0.421c-0.704,0.28-1.321,0.676-1.848,1.188
					c-0.528,0.512-0.949,1.133-1.261,1.861c-0.312,0.728-0.468,1.541-0.468,2.437c0,0.897,0.156,1.709,0.468,2.438
					c0.312,0.728,0.737,1.349,1.273,1.861c0.536,0.512,1.156,0.909,1.86,1.188c0.705,0.281,1.457,0.421,2.258,0.421
					c0.913,0,1.685-0.132,2.317-0.396c0.632-0.264,1.173-0.604,1.621-1.021c0.32-0.288,0.596-0.652,0.828-1.092
					c0.233-0.44,0.412-0.932,0.541-1.477h-5.402V870.454z"/>
			</g>
			<g>
				<path style="fill:#FFFFFF;" d="M602.976,859.493c-0.013-2.665-2.087-4.618-4.766-4.659c-2.011-0.031-1.81,0.261-1.815-1.887
					c-0.006-2.389-0.015-4.778,0.006-7.166c0.007-0.824-0.243-1.505-0.787-2.125c-5.098-5.81-10.184-11.63-15.281-17.441
					c-0.262-0.299-0.599-0.532-0.901-0.796c-13.528,0-27.055,0-40.583,0c-1.729,0.639-2.482,1.889-2.478,3.72
					c0.021,8.159,0.009,16.318,0.008,24.478c0,1.21-0.007,1.281-1.197,1.201c-3.258-0.221-5.477,2.147-5.436,5.426
					c0.096,7.568,0.028,15.137,0.031,22.706c0.001,3.44,1.887,5.32,5.333,5.331c1.267,0.004,1.268,0.004,1.268,1.306
					c0.001,4.831-0.002,9.662,0.002,14.493c0.002,2.595,1.262,3.855,3.85,3.855c17.446,0.001,34.891,0.001,52.337,0
					c2.543,0,3.822-1.268,3.824-3.799c0.005-4.912,0.001-9.823,0.003-14.735c0-1.115,0.005-1.112,1.131-1.121
					c0.589-0.005,1.178,0.017,1.761-0.127c2.169-0.535,3.68-2.273,3.689-4.503C603.01,875.597,603.015,867.545,602.976,859.493z
					 M541.037,828.716c11.619-0.001,23.237-0.001,34.856,0c1.193,0,1.206,0.015,1.207,1.222c0.001,4.884-0.002,9.767,0.002,14.651
					c0.001,1.765,0.543,2.305,2.307,2.306c4.159,0.003,8.318,0,12.477,0.003c0.997,0.001,1.044,0.046,1.046,1.052
					c0.006,1.932,0.005,3.864,0,5.796c-0.003,1.038-0.051,1.085-1.098,1.085c-8.479,0.002-16.958,0.001-25.438,0.001
					c-8.452,0-16.905,0-25.357,0c-1.198,0-1.202-0.003-1.202-1.221c-0.001-7.889-0.001-15.778,0-23.667
					C539.838,828.724,539.847,828.716,541.037,828.716z M591.731,903.645c-8.454,0.001-16.908,0.001-25.362,0.001
					c-8.427,0-16.854,0.001-25.281,0c-1.245,0-1.249-0.003-1.249-1.262c-0.001-4.348-0.003-8.696,0.001-13.043
					c0.001-1.01,0.051-1.059,1.041-1.059c16.989-0.002,33.977-0.002,50.966,0c1.041,0,1.086,0.044,1.087,1.094
					c0.003,4.348,0.003,8.696,0.001,13.043C592.934,903.634,592.923,903.645,591.731,903.645z"/>
			</g>
			<g>
				<path style="fill:#FFFFFF;" d="M549.998,865.772v3.986h6.891v3.074h-6.891v3.986h7.659v3.073h-10.901v-17.193h10.901v3.073
					H549.998z"/>
				<path style="fill:#FFFFFF;" d="M560.635,879.891v-17.193h6.051c0.816,0,1.581,0.132,2.293,0.396
					c0.712,0.264,1.333,0.636,1.861,1.117c0.528,0.48,0.944,1.053,1.249,1.717c0.304,0.665,0.456,1.397,0.456,2.198
					c0,0.816-0.152,1.557-0.456,2.221c-0.305,0.664-0.721,1.236-1.249,1.717c-0.528,0.48-1.149,0.852-1.861,1.117
					c-0.713,0.264-1.477,0.396-2.293,0.396h-2.809v6.315H560.635z M566.735,870.503c0.848,0,1.489-0.241,1.921-0.721
					c0.432-0.48,0.648-1.032,0.648-1.656c0-0.304-0.052-0.601-0.156-0.889c-0.105-0.288-0.264-0.54-0.48-0.756
					c-0.216-0.217-0.484-0.388-0.805-0.516c-0.32-0.129-0.696-0.193-1.128-0.193h-2.857v4.731H566.735z"/>
				<path style="fill:#FFFFFF;" d="M580.109,880.275c-0.737,0-1.441-0.104-2.113-0.312c-0.672-0.208-1.289-0.52-1.849-0.936
					c-0.56-0.416-1.049-0.925-1.465-1.525c-0.416-0.601-0.744-1.301-0.985-2.101l3.049-1.2c0.224,0.864,0.616,1.581,1.177,2.149
					c0.56,0.568,1.296,0.852,2.209,0.852c0.336,0,0.66-0.044,0.973-0.132c0.312-0.087,0.592-0.216,0.84-0.384
					c0.248-0.168,0.444-0.38,0.588-0.636c0.144-0.256,0.217-0.552,0.217-0.888c0-0.32-0.057-0.608-0.168-0.865
					c-0.112-0.255-0.3-0.495-0.565-0.72c-0.264-0.224-0.608-0.44-1.032-0.648c-0.424-0.208-0.949-0.424-1.573-0.648l-1.056-0.384
					c-0.465-0.16-0.932-0.376-1.404-0.648c-0.473-0.272-0.901-0.6-1.285-0.985c-0.384-0.384-0.701-0.836-0.949-1.357
					c-0.248-0.52-0.372-1.108-0.372-1.765c0-0.672,0.132-1.301,0.396-1.885c0.264-0.584,0.64-1.096,1.129-1.537
					c0.489-0.44,1.073-0.784,1.753-1.032c0.68-0.248,1.437-0.372,2.269-0.372c0.865,0,1.613,0.116,2.246,0.348
					c0.632,0.232,1.168,0.528,1.609,0.888c0.44,0.36,0.796,0.757,1.068,1.188c0.272,0.433,0.472,0.84,0.601,1.225l-2.857,1.2
					c-0.161-0.48-0.453-0.913-0.877-1.297s-1.005-0.576-1.741-0.576c-0.705,0-1.289,0.164-1.753,0.492
					c-0.465,0.329-0.696,0.757-0.696,1.285c0,0.512,0.224,0.949,0.672,1.309c0.448,0.36,1.16,0.708,2.137,1.044l1.08,0.36
					c0.689,0.241,1.317,0.517,1.885,0.828c0.568,0.312,1.056,0.684,1.465,1.117c0.408,0.433,0.72,0.925,0.936,1.477
					c0.216,0.552,0.324,1.189,0.324,1.909c0,0.897-0.18,1.669-0.54,2.317c-0.36,0.648-0.821,1.181-1.38,1.597
					c-0.561,0.416-1.193,0.728-1.897,0.936C581.47,880.172,580.782,880.275,580.109,880.275z"/>
			</g>
			<g>
				<path style="fill:#FFFFFF;" d="M655.431,876.625l8.716-10.854h-8.332v-3.073h12.103v3.266l-8.621,10.854h8.716v3.073h-12.582
					V876.625z"/>
				<path style="fill:#FFFFFF;" d="M670.702,862.699h3.242v17.193h-3.242V862.699z"/>
				<path style="fill:#FFFFFF;" d="M677.402,879.891v-17.193h6.051c0.817,0,1.581,0.132,2.293,0.396
					c0.712,0.264,1.333,0.636,1.861,1.117s0.944,1.053,1.249,1.717c0.304,0.665,0.456,1.397,0.456,2.198
					c0,0.816-0.152,1.557-0.456,2.221c-0.305,0.664-0.721,1.236-1.249,1.717s-1.149,0.852-1.861,1.117
					c-0.713,0.264-1.477,0.396-2.293,0.396h-2.809v6.315H677.402z M683.501,870.503c0.848,0,1.489-0.241,1.921-0.721
					c0.433-0.48,0.648-1.032,0.648-1.656c0-0.304-0.052-0.601-0.156-0.889c-0.105-0.288-0.264-0.54-0.48-0.756
					c-0.216-0.217-0.484-0.388-0.805-0.516c-0.32-0.129-0.696-0.193-1.128-0.193h-2.857v4.731H683.501z"/>
			</g>
		</g>
		<g style="opacity:0.61;">
			<path style="fill:#FFFFFF;" d="M609.144,863.785h19.739v4.881h-19.739V863.785z M609.144,872.201h19.739v4.884h-19.739V872.201z"
				/>
		</g>
	</g>
	<g style="opacity:0.61;">
		<path style="fill:#FFFFFF;" d="M297,963.076h3.498c2.75,0,4.603,1.768,4.603,4.297s-1.854,4.296-4.603,4.296H297V963.076z
			 M300.449,970.883c2.283,0,3.756-1.448,3.756-3.51s-1.473-3.511-3.756-3.511h-2.541v7.021H300.449z"/>
		<path style="fill:#FFFFFF;" d="M315.251,967.373c0-2.504,1.915-4.37,4.517-4.37c2.577,0,4.505,1.853,4.505,4.37
			c0,2.516-1.927,4.369-4.505,4.369C317.166,971.742,315.251,969.877,315.251,967.373z M323.365,967.373
			c0-2.05-1.534-3.56-3.596-3.56c-2.075,0-3.621,1.51-3.621,3.56c0,2.049,1.546,3.559,3.621,3.559
			C321.831,970.932,323.365,969.422,323.365,967.373z"/>
		<path style="fill:#FFFFFF;" d="M346.724,963.076l-2.897,8.593h-0.957l-2.516-7.328l-2.529,7.328h-0.945l-2.897-8.593h0.933
			l2.479,7.389l2.566-7.389h0.847l2.529,7.426l2.516-7.426H346.724z"/>
		<path style="fill:#FFFFFF;" d="M364.435,963.076v8.593h-0.749l-5.524-6.972v6.972h-0.908v-8.593h0.749l5.536,6.973v-6.973H364.435
			z"/>
		<path style="fill:#FFFFFF;" d="M376.108,963.076h0.908v7.807h4.812v0.786h-5.72V963.076z"/>
		<path style="fill:#FFFFFF;" d="M391.279,967.373c0-2.504,1.915-4.37,4.517-4.37c2.577,0,4.505,1.853,4.505,4.37
			c0,2.516-1.927,4.369-4.505,4.369C393.194,971.742,391.279,969.877,391.279,967.373z M399.392,967.373
			c0-2.05-1.534-3.56-3.596-3.56c-2.075,0-3.621,1.51-3.621,3.56c0,2.049,1.546,3.559,3.621,3.559
			C397.858,970.932,399.392,969.422,399.392,967.373z"/>
		<path style="fill:#FFFFFF;" d="M416.478,969.374h-4.787l-1.031,2.295h-0.945l3.928-8.593h0.896l3.928,8.593h-0.957
			L416.478,969.374z M416.147,968.637l-2.062-4.615l-2.062,4.615H416.147z"/>
		<path style="fill:#FFFFFF;" d="M428.765,963.076h3.498c2.75,0,4.603,1.768,4.603,4.297s-1.854,4.296-4.603,4.296h-3.498V963.076z
			 M432.214,970.883c2.283,0,3.756-1.448,3.756-3.51s-1.473-3.511-3.756-3.511h-2.541v7.021H432.214z"/>
		<path style="fill:#FFFFFF;" d="M465.256,969.374h-4.787l-1.031,2.295h-0.945l3.928-8.593h0.896l3.928,8.593h-0.957
			L465.256,969.374z M464.925,968.637l-2.062-4.615l-2.062,4.615H464.925z"/>
		<path style="fill:#FFFFFF;" d="M477.543,963.076h0.908v7.807h4.812v0.786h-5.72V963.076z"/>
		<path style="fill:#FFFFFF;" d="M493.647,963.076h0.908v7.807h4.812v0.786h-5.72V963.076z"/>
		<path style="fill:#FFFFFF;" d="M522.749,963.862v3.376h4.443v0.786h-4.443v3.646h-0.909v-8.593h5.891v0.786H522.749z"/>
		<path style="fill:#FFFFFF;" d="M538.485,963.076h0.909v8.593h-0.909V963.076z"/>
		<path style="fill:#FFFFFF;" d="M551.067,963.076h0.909v7.807h4.811v0.786h-5.72V963.076z"/>
		<path style="fill:#FFFFFF;" d="M573.246,970.883v0.786h-6.076v-8.593h5.891v0.786h-4.983v3.056h4.443v0.774h-4.443v3.191H573.246z
			"/>
		<path style="fill:#FFFFFF;" d="M597.255,963.862v3.376h4.443v0.786h-4.443v3.646h-0.909v-8.593h5.891v0.786H597.255z"/>
		<path style="fill:#FFFFFF;" d="M612.119,967.373c0-2.504,1.915-4.37,4.517-4.37c2.577,0,4.505,1.853,4.505,4.37
			c0,2.516-1.927,4.369-4.505,4.369C614.034,971.742,612.119,969.877,612.119,967.373z M620.232,967.373
			c0-2.05-1.534-3.56-3.596-3.56c-2.075,0-3.622,1.51-3.622,3.56c0,2.049,1.547,3.559,3.622,3.559
			C618.698,970.932,620.232,969.422,620.232,967.373z"/>
		<path style="fill:#FFFFFF;" d="M637.919,971.669l-1.963-2.762c-0.222,0.024-0.442,0.037-0.688,0.037h-2.307v2.725h-0.909v-8.593
			h3.216c2.185,0,3.511,1.105,3.511,2.946c0,1.351-0.712,2.295-1.964,2.7l2.099,2.946H637.919z M637.871,966.022
			c0-1.375-0.909-2.161-2.627-2.161h-2.283v4.309h2.283C636.962,968.17,637.871,967.373,637.871,966.022z"/>
		<path style="fill:#FFFFFF;" d="M658.724,963.076v8.593h-0.871v-6.874l-3.376,5.782h-0.429l-3.376-5.745v6.837h-0.872v-8.593h0.749
			l3.732,6.371l3.695-6.371H658.724z"/>
		<path style="fill:#FFFFFF;" d="M675.787,969.374h-4.788l-1.031,2.295h-0.946l3.928-8.593h0.896l3.928,8.593h-0.957
			L675.787,969.374z M675.455,968.637l-2.062-4.615l-2.062,4.615H675.455z"/>
		<path style="fill:#FFFFFF;" d="M689.312,963.862h-3.02v-0.786h6.948v0.786h-3.02v7.807h-0.908V963.862z"/>
		<path style="fill:#FFFFFF;" d="M702.605,970.626l0.356-0.7c0.614,0.601,1.706,1.043,2.835,1.043c1.608,0,2.308-0.675,2.308-1.522
			c0-2.357-5.29-0.908-5.29-4.087c0-1.265,0.982-2.357,3.167-2.357c0.97,0,1.976,0.282,2.664,0.761l-0.307,0.724
			c-0.737-0.479-1.596-0.712-2.357-0.712c-1.571,0-2.271,0.7-2.271,1.559c0,2.357,5.29,0.933,5.29,4.063
			c0,1.265-1.006,2.344-3.204,2.344C704.508,971.742,703.243,971.288,702.605,970.626z"/>
	</g>
</g>
<g>
</g>
<g id="_x23_7e7e7eff">
</g>
<g transform="matrix(1.22897 0 0 1.22897 887.156 -347.891)">
	<path d="M-27.858,435.94c-7.371-9.21-19.785-12.814-31.158-11.212c-4.566,0.481-9.049,1.681-13.456,3.122
		c-165.633,54.224-331.351,108.131-496.981,162.434c-25.712,8.65-43.893,34.119-43.573,61.272
		c1.042,85.462,2.482,171.003,3.765,256.456c0.241,17.702,7.371,38.206,25.39,44.934c17.943,7.289,36.202-2.245,53.182-7.69
		c156.666-53.341,313.411-106.679,470.069-160.029c13.535-4.325,26.672-12.415,33.641-25.231
		c7.688-13.615,8.571-29.633,8.571-44.932c0.32-80.814,0.96-161.549,1.279-242.363c-0.159-12.655-2.321-26.511-10.731-36.763
		L-27.858,435.94z"/>
	<g>
		<path style="fill:#FFFFFF;" d="M-56.92,422.533c11.452-1.599,24.028,2.083,31.396,11.294
			c8.489,10.334,10.651,24.269,10.813,37.244c-0.32,81.456-0.962,162.828-1.282,244.285c0,15.378-0.96,31.557-8.65,45.254
			c-7.048,12.814-20.264,21.065-33.96,25.39c-157.945,53.743-315.888,107.486-473.833,161.308
			c-17.142,5.446-35.483,15.056-53.584,7.688c-18.101-6.807-25.308-27.391-25.548-45.251c-1.282-86.183-2.723-172.361-3.765-258.544
			c-0.32-27.312,18.022-53.1,43.89-61.751c166.921-54.705,333.995-109.093,500.992-163.79c4.325-1.441,8.891-2.641,13.535-3.122
			L-56.92,422.533z M-54.517,428.14c-10.733,0.883-20.586,5.528-30.756,8.571c-159.386,52.062-318.775,104.123-478.161,156.188
			c-20.343,5.446-38.605,20.983-43.731,41.889c-4.164,14.495-1.84,29.794-2.08,44.612c1.121,74.247,2.242,148.489,3.283,222.739
			c-0.082,13.618,1.282,28.515,10.411,39.327c9.211,11.053,25.39,12.573,38.286,8.248
			c165.874-56.466,331.747-112.934,497.626-169.398c11.373-3.765,22.426-10.413,28.914-20.824
			c7.608-12.415,8.732-27.391,8.891-41.648c0.161-83.936,1.361-167.88,1.121-251.816c0.642-18.823-12.415-41.09-33.799-37.884
			L-54.517,428.14z"/>
		<path style="fill:#FFFFFF;" d="M-292.278,778.707c1.843-0.88,3.847-1.443,5.848-1.922c2.324,16.258,4.566,32.596,6.567,48.937
			c-1.681,0.801-3.524,1.361-5.364,1.761c-8.33-14.175-16.34-28.594-24.43-42.848c2.004-0.56,4.005-2.324,6.168-1.523
			c5.126,8.33,9.21,17.379,14.897,25.31c-0.801-9.932-2.562-19.782-3.683-29.715H-292.278z M-272.493,772.058
			c7.608-2.562,15.217-5.285,22.907-7.608c0.801,1.843,1.441,3.685,1.922,5.607c-2.805,1.121-5.686,2.001-8.491,2.964
			c3.847,11.452,7.77,22.825,11.534,34.28c2.805-0.962,5.607-2.004,8.491-2.805c0.88,1.763,1.52,3.685,2.001,5.686
			c-7.608,2.723-15.217,5.367-22.907,7.69c-0.722-1.843-1.361-3.765-1.922-5.686c2.802-1.042,5.686-1.922,8.489-2.884
			c-3.844-11.452-7.688-22.907-11.614-34.36c-2.802,0.96-5.604,2.081-8.489,2.802C-271.372,775.984-271.932,774.06-272.493,772.058
			L-272.493,772.058z M-217.389,753.397c1.843-0.64,3.683-1.282,5.607-1.922c5.525,15.217,10.411,30.595,15.616,45.894
			c-1.761,0.96-3.683,1.52-5.604,1.922c-7.209-8.33-14.178-16.901-21.387-25.231c3.125,9.774,6.728,19.463,9.692,29.316
			c-1.84,0.64-3.683,1.282-5.604,1.922c-5.446-15.217-10.413-30.595-15.619-45.894c1.761-0.88,3.603-1.523,5.525-2.083
			c7.289,8.33,14.257,16.98,21.467,25.392C-210.742,772.939-214.346,763.25-217.389,753.397z M-189.757,745.469
			c5.848-6.329,17.781-3.685,20.184,4.724c-1.843,0.801-3.685,1.361-5.528,1.922c-2.403-6.168-12.734-4.566-11.933,2.482
			c2.564,8.732,5.607,17.303,8.65,25.792c3.765,5.766,12.896,0.96,11.053-5.528c1.843-0.64,3.603-1.2,5.525-1.761
			c5.768,14.175-17.62,22.746-22.667,8.65C-186.553,770.057-198.486,756.68-189.757,745.469L-189.757,745.469z M-158.839,733.855
			c7.688-2.564,15.296-5.367,23.066-7.611c0.722,1.843,1.361,3.685,1.761,5.607c-5.686,2.004-11.452,3.844-17.139,5.848
			c1.523,4.724,3.204,9.451,4.806,14.257c4.806-1.523,9.451-3.365,14.257-4.645c0.801,1.84,1.441,3.683,1.843,5.687
			c-4.648,1.761-9.454,3.283-14.099,4.803c1.523,4.806,3.125,9.454,4.806,14.178c5.766-1.843,11.373-3.926,17.221-5.686
			c0.88,1.843,1.441,3.765,1.922,5.686c-7.529,2.802-15.217,5.205-22.907,7.77C-148.749,764.529-153.713,749.151-158.839,733.855z
			 M-121.276,720.959c6.728-1.523,13.855-7.209,20.663-2.964c8.33,3.923,10.011,16.42,3.365,22.585
			c4.803,6.168,9.932,12.174,14.577,18.503c-10.252,6.086-13.937-10.091-20.665-15.299c-1.121,0.402-2.242,0.801-3.363,1.121
			c2.162,6.728,4.645,13.295,6.646,20.105c-1.843,0.64-3.683,1.361-5.525,1.922C-111.185,751.795-116.07,736.337-121.276,720.959
			L-121.276,720.959z M-113.509,724.882c1.523,4.727,3.204,9.451,4.806,14.257c5.367-0.64,11.214-5.285,8.729-11.212
			c-2.08-5.768-9.049-5.607-13.535-3.043V724.882z M-83.152,708.304c7.688-2.482,15.217-5.367,22.987-7.608
			c0.801,1.843,1.361,3.682,1.843,5.604c-5.768,1.925-11.455,3.926-17.221,5.768c1.602,4.724,3.122,9.53,4.806,14.257
			c4.724-1.523,9.369-3.204,14.096-4.727c0.96,1.843,1.761,3.765,1.843,5.848c-4.648,1.602-9.372,3.122-14.017,4.806
			c1.602,4.724,3.201,9.451,4.803,14.175c5.768-1.843,11.455-3.923,17.221-5.766c0.801,1.843,1.523,3.765,1.763,5.766
			c-7.608,2.644-15.22,5.367-22.907,7.69c-5.047-15.22-10.331-30.436-15.22-45.815L-83.152,708.304z"/>
		<path style="fill:#FFFFFF;" d="M-344.586,842.098c0.478,0,1.361-0.079,1.761-0.161c2.004,4.566,4.166,9.131,6.088,13.779
			c-1.444,0.56-2.403,0.079-2.884-1.282c-0.801,0.161-1.681,0.32-2.482,0.481c0.32,1.52-0.481,2.321-1.922,2.482
			c-0.241-5.047-0.481-10.173-0.563-15.299H-344.586z M-342.423,847.784c0,1.763,0.079,3.445,0.079,5.208
			c0.481-0.082,1.523-0.323,2.083-0.481C-340.983,850.989-341.622,849.386-342.423,847.784z M-355.639,840.736
			c2.403,0.722,4.803,1.441,7.207,2.242c-0.159,0.481-0.399,1.361-0.478,1.843c-1.763-0.56-3.606-1.042-5.367-1.602
			c-0.481,1.444-0.883,2.805-1.361,4.246c1.441,0.481,2.964,0.962,4.404,1.441c-0.161,0.481-0.481,1.361-0.64,1.843
			c-1.444-0.399-2.964-0.88-4.407-1.361c-0.399,1.444-0.88,2.884-1.279,4.246c1.761,0.56,3.524,1.121,5.285,1.681
			c-0.161,0.481-0.399,1.361-0.56,1.843c-2.403-0.722-4.806-1.441-7.209-2.242c1.441-4.806,2.884-9.533,4.404-14.178
			L-355.639,840.736z M-324.082,838.976c-4.648-2.162,2.242-6.168,1.761-1.124C-322.802,838.093-323.682,838.653-324.082,838.976z
			 M-335.135,836.813c0.399-0.402,1.2-1.124,1.602-1.444c3.363,3.606,6.807,7.13,10.252,10.733c-0.32,0.32-1.042,1.042-1.444,1.361
			c-2.641-2.562-5.126-5.446-7.767-8.01c0.159,0.801,0.56,2.485,0.801,3.286c-1.124-0.323-2.245-0.642-3.365-0.962
			c2.564,2.723,5.205,5.446,7.77,8.169c-0.481,0.481-0.962,0.883-1.441,1.361c-3.445-3.524-6.889-7.127-10.252-10.651
			c0.32-0.402,1.121-1.121,1.441-1.523c1.042,0.241,2.083,0.56,3.125,0.88C-334.654,838.894-334.894,837.852-335.135,836.813
			L-335.135,836.813z M-361.807,834.41c1.763,1.761,3.445,3.682,5.126,5.604c-0.399,0.323-1.121,0.962-1.523,1.282
			c-0.64-0.64-1.279-1.361-1.84-2.001c-3.204,2.881-6.329,5.845-9.612,8.729c-0.32-0.402-0.96-1.121-1.282-1.523
			c3.125-2.964,6.329-5.766,9.533-8.65c-0.563-0.722-1.203-1.361-1.763-2.08C-362.848,835.37-362.127,834.73-361.807,834.41
			L-361.807,834.41z M-322.881,832.327c-6.247,0.241-3.923-8.811,1.523-5.848c5.126-1.681,8.97,6.088,2.482,6.57
			c0.402-1.523,1.922-2.324,2.242-3.847c-2.482-0.64-10.091-3.442-8.169,1.523c0.56-0.399,1.763-1.2,2.324-1.602
			C-322.562,830.165-322.72,831.206-322.881,832.327z M-380.228,825.279c3.923-0.481,7.928-0.642,11.854-0.962v1.602
			c-2.884,0.161-5.768,0.402-8.65,0.642c0.801,0.399,1.681,0.88,2.482,1.279c-0.561,0.402-1.681,1.124-2.242,1.523
			c2.882-0.161,5.845-0.399,8.809-0.64v1.52c-3.844,0.241-7.688,0.642-11.532,0.883c-0.082-0.402-0.082-1.203-0.161-1.602
			c0.64-0.481,1.282-0.962,1.922-1.444C-379.028,827.521-379.987,826.72-380.228,825.279L-380.228,825.279z M-343.145,818.792h6.006
			v1.52h-4.404v3.527h3.606v1.599h-3.606v3.527h4.404v1.52h-5.845C-343.224,826.561-342.905,822.635-343.145,818.792z
			 M-351.235,818.792h1.523v4.965h2.802v-4.965h1.523c-0.722,3.844,1.441,9.29-1.282,12.013c-0.241-1.761-0.241-3.603-0.241-5.446
			h-2.802c0,1.843,0,3.606-0.161,5.446C-352.755,828.081-350.592,822.635-351.235,818.792L-351.235,818.792z M-359.163,818.792
			c2.242-0.642,9.372,0.64,3.685,1.602v10.012h-1.523v-10.091h-2.162V818.792z M-327.606,818.551
			c3.926-0.801,7.77-1.681,11.693-2.321c0,3.122-4.484,3.603-6.326,5.604c2.321-0.478,4.645-0.96,6.969-1.441
			c0.079,0.399,0.32,1.121,0.399,1.523c-4.005,0.399-8.251,2.802-12.174,1.681c1.84-2.083,4.484-3.283,6.728-4.885
			c-2.324,0.399-4.566,0.88-6.889,1.361C-327.368,819.672-327.526,818.871-327.606,818.551L-327.606,818.551z M-378.626,815.268
			c2.802-2.242,15.217,1.441,9.771,6.567c-3.204-0.079-9.692-0.399-10.493-3.682c3.365,0,7.77,3.682,10.493,1.361
			C-370.216,816.23-375.662,817.11-378.626,815.268z M-375.501,809.182c0.241-0.323,0.722-0.962,0.88-1.361
			c2.723,1.922,5.525,3.844,8.248,5.845c0.801-1.2,1.684-2.321,2.485-3.524c0.32,0.241,0.96,0.642,1.279,0.801
			c-1.121,1.681-2.242,3.283-3.363,4.885C-369.174,813.665-372.299,811.424-375.501,809.182z M-322.641,806.937l1.361-0.801
			c0.563,1.922,4.407,4.486,1.843,5.927c-0.32-0.481-0.88-1.441-1.2-1.922c-2.403,1.441-4.806,2.964-7.209,4.404
			c0.32,0.481,0.801,1.444,1.121,1.925c-0.32,0.159-1.042,0.56-1.361,0.719c-0.481-1.84-4.325-4.404-1.843-5.927
			c0.32,0.481,0.962,1.443,1.203,1.925c2.403-1.444,4.806-2.964,7.207-4.407C-321.84,808.14-322.239,807.58-322.641,806.937z
			 M-336.816,807.659c2.482-3.204,4.885-6.408,7.529-9.451c1.2,0.88,1.2,2.162,0.88,3.524c1.203-0.64,2.482-0.801,3.603,0.161
			c-2.482,3.122-4.885,6.326-7.526,9.369c-2.083-2.641,3.283-5.285,4.325-7.849c-0.801,0.323-1.602,0.563-2.403,0.883
			c0.079-0.642,0.241-1.922,0.32-2.564C-332.412,803.255-333.694,809.021-336.816,807.659z M-370.134,802.213
			c1.52-1.361,3.122-2.644,4.804-3.844c0.883,1.121,0.241,2.001-0.801,2.802c1.364,2.964,6.889,5.686,5.287,8.891
			c-2.324-2.562-4.404-5.367-6.567-8.01c-0.563,0.481-1.121,0.883-1.681,1.361C-369.333,803.093-369.814,802.533-370.134,802.213z
			 M-343.465,805.338c2.403-3.286,3.524-9.372,7.371-10.413c-1.121,3.844,0,9.29-2.723,12.013c-0.161-0.56-0.402-1.761-0.563-2.321
			C-340.821,804.214-342.103,805.177-343.465,805.338L-343.465,805.338z M-361.085,796.045c1.843-0.722,3.685-1.361,5.525-2.001
			c0.082,0.32,0.323,1.121,0.481,1.441c-0.481,0.161-1.52,0.56-2.001,0.801c0.96,2.644,1.922,5.367,2.884,8.01
			c0.64-0.241,1.361-0.481,2.001-0.722c0.161,0.32,0.399,1.121,0.56,1.441c-1.922,0.722-3.844,1.441-5.848,2.001
			c-0.238-1.279,0.323-2.08,1.684-2.321c-0.962-2.644-1.922-5.287-2.805-7.931c-0.56,0.161-1.602,0.481-2.08,0.642L-361.085,796.045
			z M-347.79,804.857c-6.408-1.763-1.282-17.943,3.603-8.811c-4.965-3.043-5.205,2.324-4.484,6.807
			c0.399,0.161,1.2,0.481,1.52,0.642c0.323-0.32,0.962-0.962,1.361-1.282l-1.681-0.241c0-0.399,0.079-1.121,0.079-1.523h3.125
			C-344.187,802.454-345.228,805.177-347.79,804.857L-347.79,804.857z M-350.833,788.678c27.312-3.685,49.576,28.432,36.683,52.701
			c-10.572,24.99-48.857,28.432-63.596,5.607C-394.725,825.282-378.306,789.799-350.833,788.678z M-353.315,790.999
			c-17.702,2.564-31.317,20.346-28.996,38.127c1.444,16.819,16.581,30.997,33.479,31.317c23.468,1.761,42.851-24.19,34.362-46.134
			C-319.595,798.528-336.977,787.956-353.315,790.999L-353.315,790.999z"/>
		<path style="fill:#FFFFFF;" d="M-552.665,866.432c1.843-0.64,3.685-1.282,5.528-1.922c5.446,15.217,10.493,30.677,15.619,46.052
			c-1.843,0.722-3.685,1.361-5.607,1.843c-7.289-8.33-14.257-16.898-21.464-25.31c3.204,9.774,6.728,19.545,9.771,29.395
			c-1.843,0.642-3.685,1.282-5.607,1.922c-5.525-15.217-10.493-30.595-15.619-45.891c1.763-0.883,3.685-1.444,5.607-1.925
			c7.289,8.412,14.257,16.98,21.464,25.392C-546.096,886.056-549.702,876.365-552.665,866.432L-552.665,866.432z M-523.59,857.061
			c1.763-0.88,3.524-1.441,5.446-1.843c8.09,14.178,16.259,28.435,24.269,42.611c-1.922,0.801-3.923,1.523-5.927,2.004
			c-0.96-1.763-1.922-3.445-2.964-5.208c-3.122,0.801-6.165,1.922-9.211,3.046c0.241,2.001,0.56,4.002,0.722,6.006
			c-1.843,0.722-3.765,1.361-5.687,1.922C-519.585,889.58-521.428,873.319-523.59,857.061L-523.59,857.061z M-514.779,874.12
			c-0.079,5.768,1.2,11.455,1.922,17.221c2.242-0.64,4.486-1.361,6.567-2.242c-2.482-5.126-5.285-10.173-8.489-14.976V874.12z
			 M-501.085,849.053c7.611-2.644,15.14-5.208,22.749-7.69c0.96,1.843,1.52,3.765,2.001,5.768c-2.802,0.96-5.687,1.922-8.489,2.881
			c4.484,13.456,9.29,26.751,13.456,40.287c-1.843,0.642-3.685,1.282-5.607,1.843c-4.968-13.295-9.131-26.83-13.776-40.207
			c-2.805,0.962-5.607,2.083-8.571,2.805C-500.043,852.897-500.762,851.054-501.085,849.053L-501.085,849.053z M-446.94,830.87
			c1.843-0.722,3.765-1.361,5.687-2.001c4.246,12.335,8.65,24.668,12.335,37.162c1.922,12.174-16.1,18.664-22.426,8.172
			c-4.806-12.256-8.571-24.99-12.896-37.484c1.922-0.722,3.765-1.444,5.766-1.843c4.246,11.854,8.01,23.867,12.256,35.721
			c2.964,5.446,12.415,2.162,11.05-4.084C-438.85,854.578-443.175,842.803-446.94,830.87z M-423.472,831.592
			c-0.722-13.295,20.102-16.74,23.788-4.005c-1.763,0.962-3.685,1.523-5.607,2.162c-2.802-7.849-15.537-2.802-11.294,4.806
			c5.848,5.687,15.138,6.329,21.625,11.214c5.047,4.803,4.885,13.935-0.722,18.26c-6.086,5.607-17.139,2.482-19.381-5.446
			c1.84-0.722,3.765-1.361,5.687-1.922c2.882,7.928,15.457,2.324,11.132-5.047c-7.69-7.207-24.668-6.406-25.231-20.023
			L-423.472,831.592z"/>
	</g>
	<path style="fill:#FFF200;" d="M-476.641,606.201c1.444,0.32,2.244,1.52,3.046,2.562c43.168,55.506,86.982,110.534,129.915,166.276
		c-26.833,9.292-53.825,18.262-80.737,27.394c-17.699-22.907-35.401-45.735-52.781-68.883c0.159-42.367,0.32-84.819,0.56-127.348
		L-476.641,606.201z M-570.914,633.032c27.872-9.372,55.665-18.981,83.619-28.192c0.079,73.285-0.481,146.567-0.722,219.934
		c-27.074,9.21-54.063,18.421-81.216,27.473c-0.883-73.047-1.203-146.176-1.684-219.215H-570.914z M-421.302,581.932
		c26.513-8.97,52.945-18.101,79.458-26.833c0.962,67.522,1.441,135.117,2.324,202.716c-0.082,1.361,0.478,3.125-0.883,4.005
		c-26.349-33.641-52.942-67.12-78.889-101.001c-0.883-26.27-1.444-52.622-2.004-78.892L-421.302,581.932z M-331.359,551.176
		c12.335-4.005,24.589-8.65,36.924-12.174c45.014,57.748,90.027,115.578,134.797,173.482c-26.912,9.53-53.984,18.503-81.055,27.714
		c-7.928-10.413-15.619-20.824-23.626-31.158c-21.707,7.289-43.332,15.058-65.116,21.866c-0.161-14.337-0.32-28.752-0.481-43.089
		c13.054-4.645,26.27-9.131,39.327-13.697c-13.298-17.781-26.994-35.322-39.97-53.341
		C-330.957,597.551-330.878,574.324-331.359,551.176L-331.359,551.176z M-239.571,519.539c26.992-9.21,53.984-18.342,80.975-27.391
		c0.88,68.558,1.763,137.362,1.441,205.922c-27.79-34.761-54.703-70.245-82.099-105.326c-0.241-24.427-0.32-48.778-0.32-73.206
		L-239.571,519.539z M-147.622,489.024c27.793-9.451,55.586-18.981,83.455-28.353c0.32,73.285-0.56,146.654-0.64,219.934
		c-26.912,8.97-53.743,18.662-80.899,27.074c-0.481-72.886-1.441-145.771-1.922-218.657L-147.622,489.024z"/>
</g>
</svg>
